<mxfile host="app.diagrams.net" modified="2021-08-06T04:43:51.353Z" agent="5.0 (Windows NT 6.1; Win64; x64) AppleWebKit/537.36 (KHTML, like Gecko) Chrome/92.0.4515.131 Safari/537.36" etag="doLO7gKaobDU2hKmeSf6" version="14.9.3" type="github">
  <diagram id="C5RBs43oDa-KdzZeNtuy" name="Page-1">
    <mxGraphModel dx="1447" dy="1986" grid="1" gridSize="10" guides="1" tooltips="1" connect="1" arrows="1" fold="1" page="1" pageScale="1" pageWidth="827" pageHeight="1169" math="0" shadow="0">
      <root>
        <mxCell id="WIyWlLk6GJQsqaUBKTNV-0" />
        <mxCell id="WIyWlLk6GJQsqaUBKTNV-1" parent="WIyWlLk6GJQsqaUBKTNV-0" />
        <mxCell id="NyzT-G3SCLzqPRV547Ko-28" value="" style="edgeStyle=orthogonalEdgeStyle;rounded=0;orthogonalLoop=1;jettySize=auto;html=1;fontSize=18;" edge="1" parent="WIyWlLk6GJQsqaUBKTNV-1" source="NyzT-G3SCLzqPRV547Ko-8" target="NyzT-G3SCLzqPRV547Ko-24">
          <mxGeometry relative="1" as="geometry" />
        </mxCell>
        <mxCell id="NyzT-G3SCLzqPRV547Ko-8" value="Начало" style="strokeWidth=2;html=1;shape=mxgraph.flowchart.terminator;whiteSpace=wrap;fontSize=18;" vertex="1" parent="WIyWlLk6GJQsqaUBKTNV-1">
          <mxGeometry x="340.01" y="-830" width="161.25" height="40" as="geometry" />
        </mxCell>
        <mxCell id="NyzT-G3SCLzqPRV547Ko-29" value="" style="edgeStyle=orthogonalEdgeStyle;rounded=0;orthogonalLoop=1;jettySize=auto;html=1;fontSize=18;" edge="1" parent="WIyWlLk6GJQsqaUBKTNV-1" source="NyzT-G3SCLzqPRV547Ko-24" target="NyzT-G3SCLzqPRV547Ko-25">
          <mxGeometry relative="1" as="geometry" />
        </mxCell>
        <mxCell id="NyzT-G3SCLzqPRV547Ko-24" value="i = 0" style="rounded=1;whiteSpace=wrap;html=1;absoluteArcSize=1;arcSize=14;strokeWidth=2;fontSize=18;" vertex="1" parent="WIyWlLk6GJQsqaUBKTNV-1">
          <mxGeometry x="339.38" y="-770" width="161.25" height="50" as="geometry" />
        </mxCell>
        <mxCell id="NyzT-G3SCLzqPRV547Ko-27" style="edgeStyle=orthogonalEdgeStyle;rounded=0;orthogonalLoop=1;jettySize=auto;html=1;exitX=1;exitY=0.5;exitDx=0;exitDy=0;entryX=0.5;entryY=0;entryDx=0;entryDy=0;fontSize=18;" edge="1" parent="WIyWlLk6GJQsqaUBKTNV-1" source="NyzT-G3SCLzqPRV547Ko-25" target="NyzT-G3SCLzqPRV547Ko-26">
          <mxGeometry relative="1" as="geometry" />
        </mxCell>
        <mxCell id="NyzT-G3SCLzqPRV547Ko-33" style="edgeStyle=orthogonalEdgeStyle;rounded=0;orthogonalLoop=1;jettySize=auto;html=1;exitX=0;exitY=0.5;exitDx=0;exitDy=0;fontSize=18;" edge="1" parent="WIyWlLk6GJQsqaUBKTNV-1" source="NyzT-G3SCLzqPRV547Ko-25" target="NyzT-G3SCLzqPRV547Ko-32">
          <mxGeometry relative="1" as="geometry" />
        </mxCell>
        <mxCell id="NyzT-G3SCLzqPRV547Ko-25" value="i &amp;lt; 11" style="rhombus;whiteSpace=wrap;html=1;shadow=0;fontFamily=Helvetica;fontSize=18;align=center;strokeWidth=2;spacing=6;spacingTop=-4;" vertex="1" parent="WIyWlLk6GJQsqaUBKTNV-1">
          <mxGeometry x="339.38" y="-690" width="160" height="100" as="geometry" />
        </mxCell>
        <mxCell id="NyzT-G3SCLzqPRV547Ko-53" value="" style="edgeStyle=orthogonalEdgeStyle;rounded=0;orthogonalLoop=1;jettySize=auto;html=1;fontSize=18;" edge="1" parent="WIyWlLk6GJQsqaUBKTNV-1" source="NyzT-G3SCLzqPRV547Ko-26" target="NyzT-G3SCLzqPRV547Ko-52">
          <mxGeometry relative="1" as="geometry" />
        </mxCell>
        <mxCell id="NyzT-G3SCLzqPRV547Ko-26" value="Ввод A[i]" style="shape=parallelogram;html=1;strokeWidth=2;perimeter=parallelogramPerimeter;whiteSpace=wrap;rounded=1;arcSize=12;size=0.23;fontSize=18;" vertex="1" parent="WIyWlLk6GJQsqaUBKTNV-1">
          <mxGeometry x="670" y="-609" width="180" height="50" as="geometry" />
        </mxCell>
        <mxCell id="NyzT-G3SCLzqPRV547Ko-31" value="yes" style="text;html=1;align=center;verticalAlign=middle;resizable=0;points=[];autosize=1;strokeColor=none;fontSize=18;" vertex="1" parent="WIyWlLk6GJQsqaUBKTNV-1">
          <mxGeometry x="500.63" y="-675" width="40" height="30" as="geometry" />
        </mxCell>
        <mxCell id="NyzT-G3SCLzqPRV547Ko-37" value="" style="edgeStyle=orthogonalEdgeStyle;rounded=0;orthogonalLoop=1;jettySize=auto;html=1;fontSize=18;" edge="1" parent="WIyWlLk6GJQsqaUBKTNV-1" source="NyzT-G3SCLzqPRV547Ko-32" target="NyzT-G3SCLzqPRV547Ko-35">
          <mxGeometry relative="1" as="geometry" />
        </mxCell>
        <mxCell id="NyzT-G3SCLzqPRV547Ko-32" value="i = 10" style="rounded=1;whiteSpace=wrap;html=1;absoluteArcSize=1;arcSize=14;strokeWidth=2;fontSize=18;" vertex="1" parent="WIyWlLk6GJQsqaUBKTNV-1">
          <mxGeometry x="199.38" y="-601" width="161.25" height="50" as="geometry" />
        </mxCell>
        <mxCell id="NyzT-G3SCLzqPRV547Ko-34" value="no" style="text;html=1;align=center;verticalAlign=middle;resizable=0;points=[];autosize=1;strokeColor=none;fontSize=18;" vertex="1" parent="WIyWlLk6GJQsqaUBKTNV-1">
          <mxGeometry x="290.63" y="-675" width="40" height="30" as="geometry" />
        </mxCell>
        <mxCell id="NyzT-G3SCLzqPRV547Ko-39" style="edgeStyle=orthogonalEdgeStyle;rounded=0;orthogonalLoop=1;jettySize=auto;html=1;exitX=1;exitY=0.5;exitDx=0;exitDy=0;entryX=0.5;entryY=0;entryDx=0;entryDy=0;fontSize=13;" edge="1" parent="WIyWlLk6GJQsqaUBKTNV-1" source="NyzT-G3SCLzqPRV547Ko-35" target="NyzT-G3SCLzqPRV547Ko-38">
          <mxGeometry relative="1" as="geometry" />
        </mxCell>
        <mxCell id="NyzT-G3SCLzqPRV547Ko-64" style="edgeStyle=orthogonalEdgeStyle;rounded=0;orthogonalLoop=1;jettySize=auto;html=1;exitX=0;exitY=0.5;exitDx=0;exitDy=0;entryX=0.5;entryY=0;entryDx=0;entryDy=0;entryPerimeter=0;fontSize=18;" edge="1" parent="WIyWlLk6GJQsqaUBKTNV-1" source="NyzT-G3SCLzqPRV547Ko-35" target="NyzT-G3SCLzqPRV547Ko-48">
          <mxGeometry relative="1" as="geometry" />
        </mxCell>
        <mxCell id="NyzT-G3SCLzqPRV547Ko-35" value="i &amp;gt;= 0" style="rhombus;whiteSpace=wrap;html=1;shadow=0;fontFamily=Helvetica;fontSize=18;align=center;strokeWidth=2;spacing=6;spacingTop=-4;" vertex="1" parent="WIyWlLk6GJQsqaUBKTNV-1">
          <mxGeometry x="199.38" y="-502" width="160" height="100" as="geometry" />
        </mxCell>
        <mxCell id="NyzT-G3SCLzqPRV547Ko-42" value="" style="edgeStyle=orthogonalEdgeStyle;rounded=0;orthogonalLoop=1;jettySize=auto;html=1;fontSize=13;" edge="1" parent="WIyWlLk6GJQsqaUBKTNV-1" source="NyzT-G3SCLzqPRV547Ko-38" target="NyzT-G3SCLzqPRV547Ko-40">
          <mxGeometry relative="1" as="geometry" />
        </mxCell>
        <mxCell id="NyzT-G3SCLzqPRV547Ko-38" value="x = sqrt(fabs(A[i])) + &lt;br&gt;5 * pow(A[i], 3)" style="rounded=1;whiteSpace=wrap;html=1;absoluteArcSize=1;arcSize=14;strokeWidth=2;fontSize=13;" vertex="1" parent="WIyWlLk6GJQsqaUBKTNV-1">
          <mxGeometry x="354.38" y="-402" width="161.25" height="50" as="geometry" />
        </mxCell>
        <mxCell id="NyzT-G3SCLzqPRV547Ko-43" style="edgeStyle=orthogonalEdgeStyle;rounded=0;orthogonalLoop=1;jettySize=auto;html=1;exitX=1;exitY=0.5;exitDx=0;exitDy=0;entryX=0.5;entryY=0;entryDx=0;entryDy=0;fontSize=13;" edge="1" parent="WIyWlLk6GJQsqaUBKTNV-1" source="NyzT-G3SCLzqPRV547Ko-40" target="NyzT-G3SCLzqPRV547Ko-41">
          <mxGeometry relative="1" as="geometry" />
        </mxCell>
        <mxCell id="NyzT-G3SCLzqPRV547Ko-46" style="edgeStyle=orthogonalEdgeStyle;rounded=0;orthogonalLoop=1;jettySize=auto;html=1;exitX=0;exitY=0.5;exitDx=0;exitDy=0;entryX=0.5;entryY=0;entryDx=0;entryDy=0;fontSize=18;" edge="1" parent="WIyWlLk6GJQsqaUBKTNV-1" source="NyzT-G3SCLzqPRV547Ko-40" target="NyzT-G3SCLzqPRV547Ko-45">
          <mxGeometry relative="1" as="geometry" />
        </mxCell>
        <mxCell id="NyzT-G3SCLzqPRV547Ko-40" value="x &amp;gt; 400" style="rhombus;whiteSpace=wrap;html=1;shadow=0;fontFamily=Helvetica;fontSize=18;align=center;strokeWidth=2;spacing=6;spacingTop=-4;" vertex="1" parent="WIyWlLk6GJQsqaUBKTNV-1">
          <mxGeometry x="352.19" y="-322" width="165.62" height="100" as="geometry" />
        </mxCell>
        <mxCell id="NyzT-G3SCLzqPRV547Ko-56" value="" style="edgeStyle=orthogonalEdgeStyle;rounded=0;orthogonalLoop=1;jettySize=auto;html=1;fontSize=18;" edge="1" parent="WIyWlLk6GJQsqaUBKTNV-1" source="NyzT-G3SCLzqPRV547Ko-41" target="NyzT-G3SCLzqPRV547Ko-54">
          <mxGeometry relative="1" as="geometry" />
        </mxCell>
        <mxCell id="NyzT-G3SCLzqPRV547Ko-41" value="A[i] слишком велико" style="shape=document;whiteSpace=wrap;html=1;boundedLbl=1;fontSize=18;strokeWidth=2;" vertex="1" parent="WIyWlLk6GJQsqaUBKTNV-1">
          <mxGeometry x="510.63" y="-222" width="120" height="80" as="geometry" />
        </mxCell>
        <mxCell id="NyzT-G3SCLzqPRV547Ko-44" value="yes" style="text;html=1;align=center;verticalAlign=middle;resizable=0;points=[];autosize=1;strokeColor=none;fontSize=18;" vertex="1" parent="WIyWlLk6GJQsqaUBKTNV-1">
          <mxGeometry x="520" y="-311" width="40" height="30" as="geometry" />
        </mxCell>
        <mxCell id="NyzT-G3SCLzqPRV547Ko-55" value="" style="edgeStyle=orthogonalEdgeStyle;rounded=0;orthogonalLoop=1;jettySize=auto;html=1;fontSize=18;" edge="1" parent="WIyWlLk6GJQsqaUBKTNV-1" source="NyzT-G3SCLzqPRV547Ko-45" target="NyzT-G3SCLzqPRV547Ko-54">
          <mxGeometry relative="1" as="geometry" />
        </mxCell>
        <mxCell id="NyzT-G3SCLzqPRV547Ko-45" value="Вывод A[i]" style="shape=document;whiteSpace=wrap;html=1;boundedLbl=1;fontSize=18;strokeWidth=2;" vertex="1" parent="WIyWlLk6GJQsqaUBKTNV-1">
          <mxGeometry x="245" y="-222" width="120" height="80" as="geometry" />
        </mxCell>
        <mxCell id="NyzT-G3SCLzqPRV547Ko-47" value="no" style="text;html=1;align=center;verticalAlign=middle;resizable=0;points=[];autosize=1;strokeColor=none;fontSize=18;" vertex="1" parent="WIyWlLk6GJQsqaUBKTNV-1">
          <mxGeometry x="312.19" y="-311" width="40" height="30" as="geometry" />
        </mxCell>
        <mxCell id="NyzT-G3SCLzqPRV547Ko-48" value="Конец" style="strokeWidth=2;html=1;shape=mxgraph.flowchart.terminator;whiteSpace=wrap;fontSize=18;" vertex="1" parent="WIyWlLk6GJQsqaUBKTNV-1">
          <mxGeometry x="102.5" y="-20" width="142.5" height="40" as="geometry" />
        </mxCell>
        <mxCell id="NyzT-G3SCLzqPRV547Ko-63" style="edgeStyle=orthogonalEdgeStyle;rounded=0;orthogonalLoop=1;jettySize=auto;html=1;exitX=0.5;exitY=1;exitDx=0;exitDy=0;fontSize=18;" edge="1" parent="WIyWlLk6GJQsqaUBKTNV-1" source="NyzT-G3SCLzqPRV547Ko-52">
          <mxGeometry relative="1" as="geometry">
            <mxPoint x="420.0000000000002" y="-710" as="targetPoint" />
            <Array as="points">
              <mxPoint x="760" y="-450" />
              <mxPoint x="880" y="-450" />
              <mxPoint x="880" y="-710" />
            </Array>
          </mxGeometry>
        </mxCell>
        <mxCell id="NyzT-G3SCLzqPRV547Ko-52" value="i = i + 1" style="rounded=1;whiteSpace=wrap;html=1;absoluteArcSize=1;arcSize=14;strokeWidth=2;fontSize=18;" vertex="1" parent="WIyWlLk6GJQsqaUBKTNV-1">
          <mxGeometry x="679.38" y="-530" width="161.25" height="50" as="geometry" />
        </mxCell>
        <mxCell id="NyzT-G3SCLzqPRV547Ko-59" style="edgeStyle=orthogonalEdgeStyle;rounded=0;orthogonalLoop=1;jettySize=auto;html=1;exitX=0.5;exitY=1;exitDx=0;exitDy=0;fontSize=18;" edge="1" parent="WIyWlLk6GJQsqaUBKTNV-1" source="NyzT-G3SCLzqPRV547Ko-54">
          <mxGeometry relative="1" as="geometry">
            <mxPoint x="280" y="-523" as="targetPoint" />
            <mxPoint x="436.2550000000001" y="-28" as="sourcePoint" />
            <Array as="points">
              <mxPoint x="436" y="-20" />
              <mxPoint x="660" y="-20" />
              <mxPoint x="660" y="-523" />
            </Array>
          </mxGeometry>
        </mxCell>
        <mxCell id="NyzT-G3SCLzqPRV547Ko-54" value="i = i - 1" style="rounded=1;whiteSpace=wrap;html=1;absoluteArcSize=1;arcSize=14;strokeWidth=2;fontSize=18;" vertex="1" parent="WIyWlLk6GJQsqaUBKTNV-1">
          <mxGeometry x="355.63" y="-92" width="161.25" height="50" as="geometry" />
        </mxCell>
        <mxCell id="NyzT-G3SCLzqPRV547Ko-60" value="yes" style="text;html=1;align=center;verticalAlign=middle;resizable=0;points=[];autosize=1;strokeColor=none;fontSize=18;" vertex="1" parent="WIyWlLk6GJQsqaUBKTNV-1">
          <mxGeometry x="363.90999999999997" y="-490" width="40" height="30" as="geometry" />
        </mxCell>
        <mxCell id="NyzT-G3SCLzqPRV547Ko-61" value="no" style="text;html=1;align=center;verticalAlign=middle;resizable=0;points=[];autosize=1;strokeColor=none;fontSize=18;" vertex="1" parent="WIyWlLk6GJQsqaUBKTNV-1">
          <mxGeometry x="156.1" y="-490" width="40" height="30" as="geometry" />
        </mxCell>
      </root>
    </mxGraphModel>
  </diagram>
</mxfile>
